<svg id="Logo_Mwsive" xmlns="http://www.w3.org/2000/svg" xmlns:xlink="http://www.w3.org/1999/xlink" width="264.203" height="45.557" viewBox="0 0 264.203 45.557">
  <defs>
    <clipPath id="clip-path">
      <path id="Uni칩n_4" data-name="Uni칩n 4" d="M41.938,45.557V9.409l-.051.013c-.169.047-.337.1-.5.148l-.036.012c-.155.05-.308.1-.462.155l-.124.044c-.152.055-.3.11-.453.17l-.039.014c-.16.064-.32.132-.479.2l-.123.055c-.131.058-.261.117-.389.179-.032.014-.064.028-.094.044q-.23.11-.455.228l-.118.062c-.12.065-.241.13-.36.2l-.113.064c-.147.084-.293.17-.437.259-.032.019-.062.039-.093.059-.122.075-.241.152-.36.23l-.109.072c-.143.1-.287.2-.427.3l-.045.033c-.132.095-.263.193-.392.292l-.079.06c-.29.227-.575.464-.852.71l-.038.033q-.431.386-.837.8l0,0q-.2.212-.406.433a16.633,16.633,0,0,0-4.145,8.85l-.007.052c-.014.1-.028.21-.04.316,0,.031-.007.063-.011.094-.011.095-.021.19-.029.285,0,.044-.009.089-.012.133-.007.084-.015.168-.021.254,0,.058-.007.117-.011.175s-.01.145-.013.218-.006.155-.008.232c0,.056,0,.112-.006.168,0,.135,0,.27,0,.407v2.448H20.969V25.465A16.673,16.673,0,0,0,8.779,9.408V45.557H0V0H4.39A25.139,25.139,0,0,1,22.32,7.458a25.7,25.7,0,0,1,3.038,3.677c.069-.1.138-.2.209-.3q.17-.242.345-.478c.036-.051.075-.1.113-.152.081-.107.161-.214.242-.32l.14-.178c.076-.1.153-.192.229-.287.05-.062.1-.123.151-.185.077-.093.153-.184.232-.275l.156-.181c.081-.094.162-.185.243-.278.052-.057.1-.114.154-.171.09-.1.182-.2.274-.3.044-.047.087-.095.132-.142.138-.145.276-.288.417-.429A25.141,25.141,0,0,1,46.327,0h4.389V45.557Zm199.8-.179a21.65,21.65,0,0,1-15.88-6.584A21.834,21.834,0,0,1,219.3,22.847,21.87,21.87,0,0,1,225.856,6.87,21.651,21.651,0,0,1,241.736.285H264.2V9.29H241.736a12.941,12.941,0,0,0-9.515,3.971,13.085,13.085,0,0,0-3.953,9.586,13.051,13.051,0,0,0,3.953,9.555,12.94,12.94,0,0,0,9.515,3.97H264.2v9.006ZM182.623,38.5a19,19,0,0,1-2.474-6.682L173.816.189h9l6.332,31.632a6,6,0,0,0,1.479,3.293,4.091,4.091,0,0,0,3.021,1.226q3.438,0,4.5-4.519L204.513.189h9l-6.365,31.632a19.328,19.328,0,0,1-2.442,6.682q-3.889,6.746-11.057,6.874Q186.481,45.25,182.623,38.5Zm-23.914,6.874V.157h9V45.378Zm-48.28,0V36.34H138.78a4.523,4.523,0,0,0,3.182-7.714A4.327,4.327,0,0,0,138.78,27.3H123.9a13,13,0,0,1-7.844-2.55,13.285,13.285,0,0,1-4.853-6.488,13.517,13.517,0,0,1-.773-4.519,13.089,13.089,0,0,1,3.955-9.587A12.982,12.982,0,0,1,123.93.189h27.065V9.226H123.93a4.51,4.51,0,0,0-4.5,4.519,4.358,4.358,0,0,0,1.318,3.2,4.218,4.218,0,0,0,3.15,1.324H138.78a13.439,13.439,0,0,1,12.7,9.038,13.448,13.448,0,0,1-3.15,14.106,13.047,13.047,0,0,1-9.547,3.97Zm-44.9-6.616a21.857,21.857,0,0,1-6.589-16.011V.123h9V22.751a13.038,13.038,0,0,0,3.986,9.587c.288.291.582.563.884.822A11.741,11.741,0,0,1,82.949,21.818a11.739,11.739,0,0,0,8.715,9.828A12.97,12.97,0,0,0,95,22.751V.123h9V22.751a21.857,21.857,0,0,1-6.589,16.011,22.449,22.449,0,0,1-6.861,4.775,11.692,11.692,0,0,1-6.324,1.684,24.721,24.721,0,0,1-2.759.157A21.671,21.671,0,0,1,65.526,38.762ZM239.132,27.334V18.328H257.1v9.006Z" transform="translate(0 0)" stroke="rgba(0,0,0,0)" stroke-width="1"/>
    </clipPath>
    <linearGradient id="linear-gradient" x2="1" y2="1.019" gradientUnits="objectBoundingBox">
      <stop offset="0" stop-color="#f937ff"/>
      <stop offset="0.502" stop-color="#7c7df5"/>
      <stop offset="1" stop-color="#00c3ec"/>
    </linearGradient>
  </defs>
  <g id="Enmascarar_grupo_7" data-name="Enmascarar grupo 7" transform="translate(0 0)" clip-path="url(#clip-path)">
    <rect id="Rect치ngulo_674" data-name="Rect치ngulo 674" width="317.081" height="78.946" transform="translate(-19.502 -9.563)" fill="url(#linear-gradient)"/>
  </g>
</svg>
