<svg id="Icon_SM_web" xmlns="http://www.w3.org/2000/svg" width="50" height="50" viewBox="0 0 50 50">
  <rect id="Rectángulo_28" data-name="Rectángulo 28" width="50" height="50" rx="4" transform="translate(0 0)" fill="#4a4a4a"/>
  <path id="Trazado_2889" data-name="Trazado 2889" d="M19.419,13.444q-.187-.09-.38-.173c-.224-4.126-2.478-6.487-6.263-6.512h-.051A6.117,6.117,0,0,0,7.417,9.485L9.5,10.913a3.69,3.69,0,0,1,3.225-1.594h.035a3.537,3.537,0,0,1,2.8,1.077,4.245,4.245,0,0,1,.886,2.123,15.926,15.926,0,0,0-3.578-.172c-3.6.207-5.912,2.306-5.757,5.223a4.5,4.5,0,0,0,2.075,3.584,6.4,6.4,0,0,0,3.861.969,5.7,5.7,0,0,0,4.389-2.134,7.9,7.9,0,0,0,1.5-3.918,4.622,4.622,0,0,1,1.929,2.11,5.267,5.267,0,0,1-1.291,5.8c-1.71,1.708-3.766,2.448-6.872,2.47-3.446-.026-6.052-1.131-7.747-3.285-1.587-2.017-2.407-4.931-2.437-8.66.031-3.729.851-6.642,2.437-8.66,1.694-2.154,4.3-3.259,7.747-3.285,3.471.026,6.123,1.136,7.882,3.3a10.734,10.734,0,0,1,1.942,3.953l2.44-.651A13.2,13.2,0,0,0,22.5,4.226C20.249,1.451,16.951.029,12.7,0h-.017C8.442.029,5.18,1.457,2.989,4.242,1.039,6.721.033,10.17,0,14.494v.02c.034,4.324,1.04,7.773,2.99,10.252,2.191,2.785,5.453,4.213,9.695,4.242H12.7c3.771-.026,6.429-1.013,8.619-3.2a7.848,7.848,0,0,0,1.834-8.652,7.412,7.412,0,0,0-3.735-3.71m-6.511,6.122c-1.577.089-3.216-.619-3.3-2.136-.06-1.124.8-2.379,3.394-2.528q.445-.026.875-.026a12.329,12.329,0,0,1,2.624.267c-.3,3.732-2.052,4.338-3.6,4.423" transform="translate(12.523 10.496)" fill="#fff"/>
</svg>
