<svg xmlns="http://www.w3.org/2000/svg" width="50.004" height="50" viewBox="0 0 50.004 50">
  <g id="Icon_SM_Discord" transform="translate(0 0.443)">
    <rect id="Rectángulo_1041" data-name="Rectángulo 1041" width="50.004" height="50" rx="4" transform="translate(0 -0.443)" fill="#4a4a4a"/>
    <path id="Trazado_1303" data-name="Trazado 1303" d="M30.3,2.262A29.506,29.506,0,0,0,23.017,0,.11.11,0,0,0,22.9.058a20.573,20.573,0,0,0-.907,1.863,27.251,27.251,0,0,0-8.183,0A18.849,18.849,0,0,0,12.888.058.115.115,0,0,0,12.771,0a29.433,29.433,0,0,0-7.286,2.26.1.1,0,0,0-.048.041A30.209,30.209,0,0,0,.148,22.677a.124.124,0,0,0,.046.084,29.683,29.683,0,0,0,8.938,4.518.118.118,0,0,0,.126-.041,21.272,21.272,0,0,0,1.829-2.975.114.114,0,0,0-.062-.158,19.487,19.487,0,0,1-2.793-1.33.115.115,0,0,1-.011-.19c.188-.141.376-.287.555-.435a.111.111,0,0,1,.115-.016,21.169,21.169,0,0,0,17.989,0,.109.109,0,0,1,.117.015c.179.147.367.295.556.436a.115.115,0,0,1-.01.19A18.36,18.36,0,0,1,24.75,24.1a.114.114,0,0,0-.06.159,23.914,23.914,0,0,0,1.827,2.973.115.115,0,0,0,.126.042,29.584,29.584,0,0,0,8.952-4.518.117.117,0,0,0,.047-.082A30.014,30.014,0,0,0,30.349,2.3a.09.09,0,0,0-.046-.042M11.962,18.61A3.441,3.441,0,0,1,8.745,15a3.422,3.422,0,0,1,3.217-3.608A3.4,3.4,0,0,1,15.179,15a3.422,3.422,0,0,1-3.217,3.608m11.894,0A3.441,3.441,0,0,1,20.639,15a3.422,3.422,0,0,1,3.217-3.608A3.4,3.4,0,0,1,27.073,15a3.413,3.413,0,0,1-3.217,3.608" transform="translate(6.999 11.556)" fill="#fff"/>
  </g>
</svg>
