<svg xmlns="http://www.w3.org/2000/svg" xmlns:xlink="http://www.w3.org/1999/xlink" width="118.383" height="113.31" viewBox="0 0 118.383 113.31">
  <defs>
    <linearGradient id="linear-gradient" x1="0.5" x2="0.5" y2="1" gradientUnits="objectBoundingBox">
      <stop offset="0" stop-color="#f937ff"/>
      <stop offset="0.502" stop-color="#7c7df5"/>
      <stop offset="1" stop-color="#00c3ec"/>
    </linearGradient>
  </defs>
  <g id="Menu_Explorar" transform="translate(0 0.001)">
    <g id="Rectángulo_801" data-name="Rectángulo 801" transform="translate(0 -0.001)" stroke="#707070" stroke-width="1" opacity="0" fill="url(#linear-gradient)">
      <rect width="113.31" height="113.31" stroke="none"/>
      <rect x="0.5" y="0.5" width="112.31" height="112.31" fill="none"/>
    </g>
    <path id="Icon_Explore" d="M20.24,57.141A22.831,22.831,0,0,1,.324,38.135C.265,37.74,0,29.126,0,25.946c.47-1.372.567-2.837,1.133-4.182Q5.489,11.443,16.628,10.4c.578-.056,1.159-.041,1.741-.041q25.546,0,51.088.019c.865,0,12.845,1.114,13.411,1.346a17.415,17.415,0,0,1,10.463,11.8A15.369,15.369,0,0,0,88.775,25.6a11.125,11.125,0,0,0-5.129,8.551,10.9,10.9,0,0,0,4.689,9.922,16.11,16.11,0,0,0,2.572,1.521,22.393,22.393,0,0,1-7.779,8.2C75.4,58.625,64.834,56.511,63.85,56.213a26.02,26.02,0,0,1-9.945-5.632,42.735,42.735,0,0,0-4.551-3.973C47.461,45.34,46.488,45.34,44.6,46.6a37.683,37.683,0,0,0-4.283,3.72,25.212,25.212,0,0,1-17.306,6.967A27.62,27.62,0,0,1,20.24,57.141Zm72.4-15.454a11.875,11.875,0,0,1-1.8-1.077A6.663,6.663,0,0,1,87.9,34.475a6.867,6.867,0,0,1,3.232-5.323A11.158,11.158,0,0,1,93.908,27.8a9.867,9.867,0,0,1,3.042-.485,10.741,10.741,0,0,1,3.064.462V23.792q0-10.114-.011-20.232A3.4,3.4,0,0,1,102.138.116L102.429,0h1.282l.268.093a3.341,3.341,0,0,1,2.259,2.766,3.145,3.145,0,0,0,.25.447l.063.1a11.653,11.653,0,0,0,3.6,3.694l.19.127a40.312,40.312,0,0,1,3.616,2.583,11.683,11.683,0,0,1,4.365,8.077,15.065,15.065,0,0,1-.917,6.452,15.745,15.745,0,0,1-2.721,4.954,3.152,3.152,0,0,1-2.449,1.208,3.052,3.052,0,0,1-.939-.149,3.127,3.127,0,0,1-2.072-2.166,2.934,2.934,0,0,1,.63-2.728c.145-.168.171-.19.034-.619a9.2,9.2,0,0,0-3.664-4.954l0,2.717c-.011,3.858-.019,7.839.022,11.753a7.422,7.422,0,0,1-4.48,7.183A11.149,11.149,0,0,1,96.938,42.7,9.849,9.849,0,0,1,92.637,41.687Z" transform="translate(0 27.903)" fill="url(#linear-gradient)"/>
  </g>
</svg>
