<svg xmlns="http://www.w3.org/2000/svg" width="50" height="50" viewBox="0 0 50 50">
  <g id="Icon_SM_Facebook" transform="translate(-0.485)">
    <rect id="Rectángulo_1037" data-name="Rectángulo 1037" width="50" height="50" rx="4" transform="translate(0.485 0)" fill="#4a4a4a"/>
    <path id="Trazado_1302" data-name="Trazado 1302" d="M313.754,782.334s.008-11.555.013-17c0-.718.107-.823.819-.826,1.967-.008,3.934,0,5.9,0,.673,0,.717-.037.826-.682.4-2.388.8-4.778,1.2-7.167.1-.572.053-.622-.526-.622q-3.463-.005-6.925,0c-.179,0-.358,0-.536,0-.635-.017-.74-.116-.753-.739-.011-.5,0-1.008,0-1.512q0-1.438,0-2.877c0-1.106.021-1.128,1.106-1.128h6.876c.162,0,.325,0,.487,0,.287,0,.41-.15.406-.427,0-.1,0-.2,0-.292q0-3.511,0-7.022c0-.7-.023-.726-.7-.726-2.731,0-5.462-.017-8.193,0a8.675,8.675,0,0,0-8.24,6.73,9.587,9.587,0,0,0-.224,2.079c.012,1.691.008,3.381,0,5.072,0,.753-.093.842-.843.845-1.447.006-2.894,0-4.34,0-.625,0-.666.041-.667.662q-.005,3.585,0,7.169c0,.593.047.637.64.64,1.447.006,2.894,0,4.34,0,.774,0,.87.1.87.874,0,5.413-.012,16.9-.012,16.9Z" transform="translate(-285.951 -732.641)" fill="#fff"/>
  </g>
</svg>
