<svg xmlns="http://www.w3.org/2000/svg" width="50" height="50" viewBox="0 0 50 50">
  <g id="Icon_SM_instagram" transform="translate(0.198 0.443)">
    <rect id="Rect치ngulo_1041" data-name="Rect치ngulo 1041" width="50" height="50" rx="4" transform="translate(-0.198 -0.443)" fill="#4a4a4a"/>
    <path id="Exclusi칩n_4" data-name="Exclusi칩n 4" d="M-45.458-22169.189H-65.215a6,6,0,0,1-6-6v-19.256a6,6,0,0,1,6-6h19.757a6.007,6.007,0,0,1,6,6v19.256A6.007,6.007,0,0,1-45.458-22169.189Zm-10.073-24.775c-.115,0-.234,0-.345.006a9.447,9.447,0,0,0-9.332,9.871,9.454,9.454,0,0,0,2.864,6.652,9.452,9.452,0,0,0,6.664,2.793h.128a9.881,9.881,0,0,0,6.976-2.854,9.608,9.608,0,0,0,2.686-6.986,9.563,9.563,0,0,0-2.842-6.676A9.546,9.546,0,0,0-55.532-22193.965Zm9.845-1.477a1.228,1.228,0,0,0-.864.377,1.225,1.225,0,0,0-.35.877,1.235,1.235,0,0,0,1.259,1.225.1.1,0,0,0,.039-.006l.006,0a1.231,1.231,0,0,0,1.175-1.211,1.236,1.236,0,0,0-1.237-1.264h-.028Zm-9.839,18.926h-.061a7.859,7.859,0,0,1-7.756-7.828,7.765,7.765,0,0,1,7.772-7.738h.072a7.763,7.763,0,0,1,5.538,2.361,7.6,7.6,0,0,1,2.19,5.479A7.764,7.764,0,0,1-55.526-22176.516Z" transform="translate(80.015 22210)" fill="#fff"/>
  </g>
</svg>
