<svg id="Icon_SM_web" xmlns="http://www.w3.org/2000/svg" width="50" height="50" viewBox="0 0 50 50">
  <rect id="Rect치ngulo_28" data-name="Rect치ngulo 28" width="50" height="50" rx="4" transform="translate(0 0)" fill="#4a4a4a"/>
  <path id="Uni칩n_2" data-name="Uni칩n 2" d="M7790.881,16294.387V16284.1c0-2.391-.892-4.18-2.98-4.18-1.642,0-2.386,1.338-2.835,2.385a4.668,4.668,0,0,0-.147,1.494v10.592h-5.969v-12.832c0-2.236-.147-4.172-.147-5.822h5.373l.3,2.541h.146a6.544,6.544,0,0,1,5.67-2.98c3.73,0,6.564,2.531,6.564,8.053v11.041Zm-20.883,0v-19.395h5.969v19.395Zm0-23.719a3.031,3.031,0,0,1,2.988-3.133,2.9,2.9,0,0,1,2.98,2.979,2.819,2.819,0,0,1-2.98,2.988A2.876,2.876,0,0,1,7770,16270.668Z" transform="translate(-7758.425 -16255.961)" fill="#fff" stroke="rgba(0,0,0,0)" stroke-width="1"/>
</svg>
