<svg id="Icon_share_Gris" xmlns="http://www.w3.org/2000/svg" xmlns:xlink="http://www.w3.org/1999/xlink" width="71.104" height="71.09" viewBox="0 0 71.104 71.09">
  <defs>
    <linearGradient id="linear-gradient" x1="0.5" x2="0.5" y2="1" gradientUnits="objectBoundingBox">
      <stop offset="0" stop-color="#f937ff"/>
      <stop offset="0.502" stop-color="#7c7df5"/>
      <stop offset="1" stop-color="#00c3ec"/>
    </linearGradient>
  </defs>
  <path id="Trazado_1008" data-name="Trazado 1008" d="M0,0H59.8V59.8H0Z" transform="translate(5.65 11.287)" fill="none" opacity="0"/>
  <path id="Icon_Share" d="M40.387,68.733a3.156,3.156,0,0,1-2.963-2.019,6.1,6.1,0,0,1-.287-1.081c-1.65-9.327-3.373-18.64-5.046-27.961a1.052,1.052,0,0,0-1-1.028Q16.873,34.106,2.67,31.512a2.887,2.887,0,0,1-.609-5.644Q33.261,13.1,64.462.335C66.431-.471,67.88.189,68.643,2.2c.011.03.068.042.1.063V2.4c-.141.3-.037.61-.07.914A3.382,3.382,0,0,1,68.4,4.748Q61.823,20.759,55.282,36.785,51.833,45.2,48.4,53.613q-2.594,6.331-5.175,12.67c-.084.207-.2.4-.279.609a2.634,2.634,0,0,1-2.23,1.825,2.778,2.778,0,0,1-.328.016" transform="matrix(0.999, 0.035, -0.035, 0.999, 2.399, 0)" fill="url(#linear-gradient)"/>
</svg>
