<svg xmlns="http://www.w3.org/2000/svg" width="50.004" height="50.003" viewBox="0 0 50.004 50.003">
  <g id="Icon_SM_Snapchat" transform="translate(0.008 0.443)">
    <rect id="Rectángulo_1043" data-name="Rectángulo 1043" width="50.004" height="50.003" rx="4" transform="translate(-0.008 -0.443)" fill="#4a4a4a"/>
    <path id="snapchat-logo-fill-svgrepo-com" d="M41.59,39.861a5.49,5.49,0,0,1-3.543,1.072,5.582,5.582,0,0,0-2.038.362,5.512,5.512,0,0,0-1.364,1.5,5.518,5.518,0,0,1-2.839,2.445,5.432,5.432,0,0,1-3.572-.762,5.654,5.654,0,0,0-2.009-.677,5.655,5.655,0,0,0-2.009.677,6.941,6.941,0,0,1-2.824.854,3.006,3.006,0,0,1-.748-.092A5.518,5.518,0,0,1,17.8,42.8a5.514,5.514,0,0,0-1.364-1.5,5.582,5.582,0,0,0-2.038-.362,5.49,5.49,0,0,1-3.543-1.072,1.069,1.069,0,0,1,.279-1.748,10.463,10.463,0,0,0,3.268-2.85,14.307,14.307,0,0,0,2.319-4.374l-2.66-1.064a1.069,1.069,0,0,1,.794-1.986l2.413.965a21.818,21.818,0,0,0,.4-4.25,8.554,8.554,0,1,1,17.109,0,21.818,21.818,0,0,0,.4,4.25l2.413-.965a1.069,1.069,0,0,1,.794,1.986l-2.66,1.064a14.305,14.305,0,0,0,2.319,4.374,10.452,10.452,0,0,0,3.268,2.85,1.072,1.072,0,0,1,.278,1.748Z" transform="translate(-1.531 -5.443)" fill="#fff"/>
  </g>
</svg>
