<svg xmlns="http://www.w3.org/2000/svg" width="50.004" height="50" viewBox="0 0 50.004 50">
  <g id="Icon_SM_Tiktok" transform="translate(0.024 0.443)">
    <rect id="Rectángulo_1039" data-name="Rectángulo 1039" width="50.004" height="50" rx="4" transform="translate(-0.024 -0.443)" fill="#4a4a4a"/>
    <path id="Trazado_1304" data-name="Trazado 1304" d="M245.043,156.446a7.118,7.118,0,0,1-7.118-7.118c0-.027,0-.055,0-.082h0v-.461h-5.6v22.384a4.829,4.829,0,1,1-3.545-4.657v-5.7a10.434,10.434,0,1,0,0,20.711,10.432,10.432,0,0,0,9.148-10.355V159.13a7.984,7.984,0,0,0,7.833,2.879v-5.6q-.352.035-.715.035" transform="translate(-206.082 -140.229)" fill="#fff"/>
  </g>
</svg>
