<svg id="Icon_SM_web" xmlns="http://www.w3.org/2000/svg" xmlns:xlink="http://www.w3.org/1999/xlink" width="50" height="50" viewBox="0 0 50 50">
  <defs>
    <clipPath id="clip-path">
      <rect id="Rect치ngulo_929" data-name="Rect치ngulo 929" width="24.237" height="24.812" fill="#fff"/>
    </clipPath>
  </defs>
  <rect id="Rect치ngulo_28" data-name="Rect치ngulo 28" width="50" height="50" rx="4" transform="translate(0 0)" fill="#4a4a4a"/>
  <g id="Grupo_10818" data-name="Grupo 10818" transform="translate(12.882 12.594)">
    <g id="Grupo_10800" data-name="Grupo 10800" clip-path="url(#clip-path)">
      <path id="Trazado_2888" data-name="Trazado 2888" d="M24.118,24.606q-4.767-6.94-9.541-13.877a.283.283,0,0,1,.014-.421C17.036,7.479,22.929.628,23.469,0c-.623,0-2.129.024-2.129.024s-5.218,6.02-7.692,8.909c-.16.187-.207.141-.323-.028C11.328,5.991,7.267.024,7.267.024L0,.035s6.259,9.116,9.32,13.559a.253.253,0,0,1-.014.38q-3.8,4.4-7.589,8.81C1.144,23.457.574,24.136,0,24.812H2.133q1.488-1.737,2.975-3.474,2.581-3,5.164-6c.1-.113.145-.153.251,0q3.219,4.7,6.448,9.392a.8.8,0,0,1,.044.084h7.222c-.009-.086-.074-.141-.118-.206M21.11,23.268c-.961,0-1.922,0-2.884.006a.334.334,0,0,1-.311-.17Q10.482,12.463,3.042,1.827c-.041-.059-.081-.119-.148-.219,1.083,0,2.123,0,3.162,0,.149,0,.189.1.25.189q2.511,3.587,5.02,7.176l9.885,14.137c.027.038.052.078.078.115-.051.08-.122.046-.179.046" fill="#fff"/>
    </g>
  </g>
</svg>
