<svg xmlns="http://www.w3.org/2000/svg" width="50.004" height="50" viewBox="0 0 50.004 50">
  <g id="Icon_SM_Youtube" transform="translate(0.016 0.445)">
    <rect id="Rect치ngulo_1043" data-name="Rect치ngulo 1043" width="50.004" height="50" rx="4" transform="translate(-0.016 -0.445)" fill="#4a4a4a"/>
    <g id="Grupo_1358" data-name="Grupo 1358" transform="translate(6.984 12.555)">
      <g id="Grupo_1359" data-name="Grupo 1359" transform="translate(0 0)">
        <path id="Exclusi칩n_3" data-name="Exclusi칩n 3" d="M339.587-22190.207c-.11,0-11.039-.01-13.749-.742a4.422,4.422,0,0,1-3.111-3.133,46.587,46.587,0,0,1-.736-8.525,46.6,46.6,0,0,1,.736-8.523,4.431,4.431,0,0,1,3.111-3.129c2.709-.73,13.638-.74,13.749-.74s11.039.01,13.749.74a4.435,4.435,0,0,1,3.111,3.129,46.6,46.6,0,0,1,.736,8.523,46.587,46.587,0,0,1-.736,8.525,4.427,4.427,0,0,1-3.111,3.133C350.627-22190.217,339.7-22190.207,339.587-22190.207Zm-3.6-17.629v10.465l9.194-5.236-9.194-5.229Z" transform="translate(-321.993 22215)" fill="#fff" stroke="rgba(0,0,0,0)" stroke-width="1"/>
      </g>
    </g>
  </g>
</svg>
